<svg xmlns="http://www.w3.org/2000/svg" xmlns:xlink="http://www.w3.org/1999/xlink" viewBox="0 0 215.74 51"><defs><style>.cls-1{isolation:isolate;}.cls-2{fill:#000000;}.cls-3{fill:#bf2734;}.cls-4,.cls-5{mix-blend-mode:multiply;}.cls-4{fill:url(#linear-gradient);}.cls-5{fill:url(#linear-gradient-2);}</style><linearGradient id="linear-gradient" x1="3.19" y1="38.93" x2="37.82" y2="38.93" gradientUnits="userSpaceOnUse"><stop offset="0.5" stop-color="#f4f4f3"/><stop offset="1" stop-color="gray"/></linearGradient><linearGradient id="linear-gradient-2" x1="3.19" y1="12.06" x2="37.84" y2="12.06" xlink:href="#linear-gradient"/></defs><g class="cls-1"><g id="Layer_1" data-name="Layer 1"><path class="cls-2" d="M71.73,24.29a9.48,9.48,0,0,1-6.35,2q-4.6,0-7.07-2.76c-1.67-1.92-2.51-4.57-2.51-8s.86-6.13,2.57-8,4.14-2.81,7.37-2.81a9.44,9.44,0,0,1,6.17,1.91,7.84,7.84,0,0,1,2.52,5.4H71.85a2,2,0,0,1-2-1.26Q68.8,8.53,65.74,8.53a5.32,5.32,0,0,0-4.25,1.8,8.17,8.17,0,0,0-1.44,5.21,8.06,8.06,0,0,0,1.44,5.15,5.6,5.6,0,0,0,7.25.84,4.8,4.8,0,0,0,1.56-2.81h4.13A7.71,7.71,0,0,1,71.73,24.29Z"/><path class="cls-2" d="M76.53,17.58q.18-7.84,8.32-7.85h.6V14H84.08q-3.42,0-3.42,3.54V26H76.53Z"/><path class="cls-2" d="M102,17.94q0,8.39-7.37,8.39t-7.37-8.39q0-8.44,7.37-8.45T102,17.94Zm-10.6,0c0,3.15,1.09,4.73,3.17,4.73s3.14-1.62,3.18-4.85-1-4.74-3.12-4.74S91.39,14.7,91.39,17.94Z"/><path class="cls-2" d="M116.79,26l-2.46-11.63L111.76,26H107.5L103.07,9.73h4.13L109.78,21l2.34-11.26h4.31L118.65,21l2.21-9.76a1.93,1.93,0,0,1,2-1.5h2.7L121,26Z"/><path class="cls-2" d="M139.79,5.12a2,2,0,0,1,1.44.59,2,2,0,0,1,.6,1.44V19q0,7.3-7.61,7.25T126.67,18q0-8.28,6.47-8.51A5.09,5.09,0,0,1,137.76,12V5.12Zm-5.45,8q-3.28,0-3.47,4.68-.06,4.91,3.41,4.91t3.48-4.91Q137.64,13.14,134.34,13.14Z"/><path class="cls-3" d="M156,5.12,163.52,26H159l-1.38-4.26h-8.09L148.18,26h-4.55l7-19.48a2,2,0,0,1,2-1.37ZM150.7,18.18h5.75l-2.88-8.87Z"/><path class="cls-3" d="M168.79,30.28a1.8,1.8,0,0,1-2,2h-2V16.8q.3-7.25,7.61-7.25,7.54,0,7.55,8.21t-6.47,8.51a5.09,5.09,0,0,1-4.62-2.52Zm6.89-12.34q0-4.92-3.47-4.92t-3.42,4.92q.18,4.66,3.48,4.67T175.68,17.94Z"/><path class="cls-3" d="M185.87,30.28a1.8,1.8,0,0,1-2,2h-2V16.8q.3-7.25,7.61-7.25,7.56,0,7.55,8.21t-6.47,8.51a5.08,5.08,0,0,1-4.61-2.52Zm6.89-12.34q0-4.92-3.48-4.92t-3.41,4.92q.18,4.66,3.47,4.67T192.76,17.94Z"/><path class="cls-3" d="M202.58,20.63a2.1,2.1,0,0,0,.9,1.8,4,4,0,0,0,2.46.6q2.58,0,2.58-1.56,0-1.26-4.2-2-5.38-.94-5.45-4.79a4.71,4.71,0,0,1,1.74-3.83,7.71,7.71,0,0,1,4.73-1.38,8.14,8.14,0,0,1,5,1.38,5.11,5.11,0,0,1,1.92,4h-2.58a1.77,1.77,0,0,1-1.79-1c-.28-.72-1.1-1.07-2.46-1.07-1.6,0-2.4.41-2.4,1.25s1.06,1.46,3.18,1.86q4.13.84,5.45,2.1a4,4,0,0,1,1.14,2.87,4.7,4.7,0,0,1-1.92,4.08,9.17,9.17,0,0,1-5.51,1.38,7.65,7.65,0,0,1-5.09-1.44,4.89,4.89,0,0,1-1.86-4.2Z"/><path class="cls-3" d="M24,2.67a23.27,23.27,0,0,0-5.74.72,20.2,20.2,0,0,1,19.54,15.5c0,.11,0,.21.07.32a3.45,3.45,0,0,1-6.42,2.26,8.47,8.47,0,0,0-15.92,4,8,8,0,0,0,.22,1.9,8.47,8.47,0,0,0,15.7,2.13,3.45,3.45,0,0,1,6.43,2.23c0,.14-.06.28-.1.42A20.2,20.2,0,0,1,18.27,47.6,22.83,22.83,0,1,0,24,2.67Z"/><path class="cls-3" d="M37.82,32.18a2.73,2.73,0,0,1-.27.64,14.46,14.46,0,0,1-1.28,2h0a15.38,15.38,0,0,1-26.06-2.46,3.72,3.72,0,0,0-6.66,3.3,22.67,22.67,0,0,0,14.69,12A20.2,20.2,0,0,0,37.82,32.18Z"/><path class="cls-3" d="M3.58,15.36a3.72,3.72,0,0,0,6.66,3.31,15.38,15.38,0,0,1,23.53-5.09h0a15.34,15.34,0,0,1,3.82,4.59,3.62,3.62,0,0,1,.29.72A20.2,20.2,0,0,0,18.3,3.39,22.67,22.67,0,0,0,3.58,15.36Z"/><path class="cls-4" d="M37.82,32.18a2.73,2.73,0,0,1-.27.64,14.46,14.46,0,0,1-1.28,2h0a15.38,15.38,0,0,1-26.06-2.46,3.72,3.72,0,0,0-6.66,3.3,22.67,22.67,0,0,0,14.69,12A20.2,20.2,0,0,0,37.82,32.18Z"/><path class="cls-5" d="M3.58,15.36a3.72,3.72,0,0,0,6.66,3.31,15.38,15.38,0,0,1,23.53-5.09h0a15.34,15.34,0,0,1,3.82,4.59,3.62,3.62,0,0,1,.29.72A20.2,20.2,0,0,0,18.3,3.39,22.67,22.67,0,0,0,3.58,15.36Z"/><path class="cls-2" d="M63,46.2H61.57V43.05l-2.88-5.53h1.58l2,4.23,2-4.23h1.6L63,43.05Z"/><path class="cls-2" d="M70.12,46.32a3.32,3.32,0,0,1-2.48-1,3.48,3.48,0,0,1-1-2.57,3.52,3.52,0,1,1,6,2.57A3.5,3.5,0,0,1,70.12,46.32Zm1.48-1.83a2.77,2.77,0,0,0,0-3.47,2,2,0,0,0-1.47-.62A1.92,1.92,0,0,0,68.7,41a2.88,2.88,0,0,0,0,3.48,1.88,1.88,0,0,0,1.43.62A2,2,0,0,0,71.6,44.49Z"/><path class="cls-2" d="M80,39.32h1.43V46.2H80V45.12a2.32,2.32,0,0,1-2.19,1.18,2.57,2.57,0,0,1-1.92-.76,3,3,0,0,1-.76-2.16V39.32h1.41v3.85A2,2,0,0,0,77,44.58a1.62,1.62,0,0,0,1.26.5,1.69,1.69,0,0,0,1.27-.5A2,2,0,0,0,80,43.17Z"/><path class="cls-2" d="M90.17,37.52a4.7,4.7,0,0,1,3.36,1.18,4.14,4.14,0,0,1,1.25,3.19,4.08,4.08,0,0,1-1.25,3.16,4.78,4.78,0,0,1-3.36,1.15H87.33V37.52Zm-1.41,7.6h1.41a3,3,0,0,0,2.33-.87,3.82,3.82,0,0,0,0-4.73,3.06,3.06,0,0,0-2.33-.85H88.76Z"/><path class="cls-2" d="M97.75,39.32v1.2a2.16,2.16,0,0,1,2.06-1.32v1.48h-.36a1.74,1.74,0,0,0-1.27.42,2,2,0,0,0-.43,1.48V46.2H96.32V39.32Z"/><path class="cls-2" d="M104.14,46.32a3.22,3.22,0,0,1-2.43-1,4,4,0,0,1,0-5.17,3.62,3.62,0,0,1,4.9,0,3.25,3.25,0,0,1,.94,2.43,4.68,4.68,0,0,1,0,.67h-5.28a2,2,0,0,0,.58,1.37,1.86,1.86,0,0,0,1.33.51,1.66,1.66,0,0,0,1.64-1h1.54a3.07,3.07,0,0,1-1.14,1.56A3.38,3.38,0,0,1,104.14,46.32Zm1.37-5.41a1.92,1.92,0,0,0-1.34-.51,1.85,1.85,0,0,0-1.32.51,2.07,2.07,0,0,0-.6,1.36h3.82A1.83,1.83,0,0,0,105.51,40.91Z"/><path class="cls-2" d="M109.54,45.31a3.64,3.64,0,0,1-.93-2.57,3.54,3.54,0,0,1,.93-2.55,3,3,0,0,1,2.32-1,2.79,2.79,0,0,1,1.43.37,2.6,2.6,0,0,1,.95,1V39.32h1.44V46.2h-1.44V44.92a2.66,2.66,0,0,1-1,1,2.59,2.59,0,0,1-1.42.39A3.06,3.06,0,0,1,109.54,45.31Zm4.09-.86a2.33,2.33,0,0,0,.61-1.7,2.28,2.28,0,0,0-.61-1.68,2,2,0,0,0-1.47-.63,2,2,0,0,0-1.47.61,2.27,2.27,0,0,0-.62,1.68,2.38,2.38,0,0,0,.62,1.71,2,2,0,0,0,1.47.64A2,2,0,0,0,113.63,44.45Z"/><path class="cls-2" d="M119.11,39.32V40.4a2.34,2.34,0,0,1,2.2-1.2,2.72,2.72,0,0,1,1.42.38,2.36,2.36,0,0,1,1,1.09,2.7,2.7,0,0,1,1-1.08,2.74,2.74,0,0,1,1.45-.39,2.65,2.65,0,0,1,2,.77,3,3,0,0,1,.77,2.17V46.2h-1.43V42.35a2,2,0,0,0-.46-1.42,1.88,1.88,0,0,0-2.53,0,2,2,0,0,0-.46,1.42V46.2h-1.41V42.35a2.05,2.05,0,0,0-.46-1.42,1.69,1.69,0,0,0-1.27-.49,1.72,1.72,0,0,0-1.27.49,2,2,0,0,0-.46,1.42V46.2h-1.43V39.32Z"/><path class="cls-3" d="M155.58,37.52h1.52l-2.57,8.68h-1.62l-1.82-6.57-1.94,6.57-1.6,0-2.46-8.7h1.51l1.8,7.07,1.95-7.07H152l1.81,7Z"/><path class="cls-3" d="M161.3,46.32a3.25,3.25,0,0,1-2.44-1,3.59,3.59,0,0,1-.93-2.59,3.51,3.51,0,0,1,.95-2.58,3.37,3.37,0,0,1,5.83,2.4,3.58,3.58,0,0,1-.05.67h-5.27a2,2,0,0,0,.58,1.37,1.84,1.84,0,0,0,1.33.51,1.67,1.67,0,0,0,1.64-1h1.54a3.07,3.07,0,0,1-1.14,1.56A3.38,3.38,0,0,1,161.3,46.32Zm1.36-5.41a1.87,1.87,0,0,0-1.33-.51,1.82,1.82,0,0,0-1.32.51,2,2,0,0,0-.61,1.36h3.83A1.8,1.8,0,0,0,162.66,40.91Z"/><path class="cls-3" d="M173,37.52a4.7,4.7,0,0,1,3.36,1.18,4.18,4.18,0,0,1,1.25,3.19,4.11,4.11,0,0,1-1.25,3.16A4.78,4.78,0,0,1,173,46.2h-2.84V37.52Zm-1.41,7.6H173a3,3,0,0,0,2.33-.87,3.82,3.82,0,0,0,0-4.73,3.06,3.06,0,0,0-2.33-.85h-1.41Z"/><path class="cls-3" d="M182,46.32a3.25,3.25,0,0,1-2.44-1,3.59,3.59,0,0,1-.93-2.59,3.55,3.55,0,0,1,.94-2.58,3.34,3.34,0,0,1,2.46-1,3.22,3.22,0,0,1,3.38,3.37,3.58,3.58,0,0,1,0,.67h-5.27a1.93,1.93,0,0,0,.58,1.37,1.84,1.84,0,0,0,1.33.51,1.68,1.68,0,0,0,1.64-1h1.53A3,3,0,0,1,184,45.71,3.38,3.38,0,0,1,182,46.32Zm1.36-5.41A1.88,1.88,0,0,0,182,40.4a1.81,1.81,0,0,0-1.31.51,2,2,0,0,0-.61,1.36h3.82A1.76,1.76,0,0,0,183.36,40.91Z"/><path class="cls-3" d="M186.94,46.2V37h1.42V46.2Z"/><path class="cls-3" d="M192,37.49a.86.86,0,0,1-.27.65.92.92,0,0,1-1.28,0,.86.86,0,0,1-.27-.65.91.91,0,1,1,1.82,0Zm-1.63,8.71V39.32h1.43V46.2Z"/><path class="cls-3" d="M193,39.32h1.53l1.95,5.61,2-5.61h1.54l-2.63,6.88h-1.72Z"/><path class="cls-3" d="M204,46.32a3.25,3.25,0,0,1-2.44-1,3.59,3.59,0,0,1-.93-2.59,3.51,3.51,0,0,1,1-2.58,3.3,3.3,0,0,1,2.45-1,3.22,3.22,0,0,1,3.38,3.37,3.58,3.58,0,0,1,0,.67H202.1a1.93,1.93,0,0,0,.58,1.37,1.84,1.84,0,0,0,1.33.51,1.68,1.68,0,0,0,1.64-1h1.53a3,3,0,0,1-1.13,1.56A3.38,3.38,0,0,1,204,46.32Zm1.36-5.41A1.87,1.87,0,0,0,204,40.4a1.82,1.82,0,0,0-1.32.51,2,2,0,0,0-.61,1.36h3.82A1.76,1.76,0,0,0,205.37,40.91Z"/><path class="cls-3" d="M210.37,39.32v1.2a2.17,2.17,0,0,1,2.06-1.32v1.48h-.36a1.75,1.75,0,0,0-1.27.42,2.09,2.09,0,0,0-.43,1.48V46.2H209V39.32Z"/><path class="cls-2" d="M137.2,47.84h-.36V37.09h.36Z"/></g></g></svg>